<?xml version="1.0" standalone="no"?>
<!DOCTYPE svg PUBLIC "-//W3C//DTD SVG 20010904//EN"
 "http://www.w3.org/TR/2001/REC-SVG-20010904/DTD/svg10.dtd">
<svg version="1.0" xmlns="http://www.w3.org/2000/svg"
 width="512.000000pt" height="512.000000pt" viewBox="0 0 512.000000 512.000000"
 preserveAspectRatio="xMidYMid meet">
<metadata>
Created by potrace 1.14, written by Peter Selinger 2001-2017
</metadata>
<g transform="translate(0.000000,512.000000) scale(0.100000,-0.100000)"
fill="#000000" stroke="none">
<path d="M905 4454 c-22 -23 -26 -36 -21 -62 7 -43 20 -59 56 -67 35 -8 86 17
95 45 8 26 -2 75 -20 90 -7 6 -29 14 -48 17 -30 5 -40 1 -62 -23z"/>
<path d="M3786 4455 c-45 -48 -27 -117 34 -130 42 -9 68 2 85 35 30 58 7 106
-57 117 -31 5 -40 1 -62 -22z"/>
<path d="M2409 4156 c-2 -2 -29 -7 -59 -10 -79 -9 -102 -14 -205 -41 -172 -46
-368 -139 -515 -243 -121 -86 -286 -251 -372 -372 -141 -198 -253 -477 -284
-703 -12 -93 -11 -355 2 -442 22 -147 61 -289 109 -398 l22 -50 -55 -96 c-64
-114 -133 -265 -167 -364 -98 -296 -56 -491 125 -576 49 -23 66 -26 160 -24
114 1 215 25 360 85 77 31 253 119 325 161 l40 24 66 -28 c177 -75 365 -112
584 -113 143 -1 287 8 305 19 4 2 22 7 41 10 242 41 531 190 748 384 173 154
343 407 417 619 10 28 21 52 24 52 3 0 19 -13 35 -29 38 -35 68 -51 95 -51 24
0 263 227 285 270 16 32 15 41 -28 195 -20 72 -43 155 -51 185 -8 30 -22 80
-30 110 l-15 54 102 106 c127 130 211 243 275 368 45 88 118 272 107 272 -2 0
2 18 10 40 8 22 14 41 13 43 0 1 3 27 7 57 14 95 14 103 16 186 2 132 -13 144
-172 139 -227 -9 -460 -81 -662 -206 -79 -50 -202 -146 -246 -192 l-23 -25
-32 36 c-233 271 -590 473 -931 528 -27 4 -59 9 -70 11 -28 5 -352 13 -356 9z
m346 -169 c17 -3 46 -8 65 -12 212 -37 440 -140 620 -279 91 -71 252 -233 220
-222 -65 22 -464 126 -485 126 -20 0 -55 -28 -155 -126 -71 -70 -133 -139
-139 -154 -14 -42 5 -69 160 -224 l140 -139 -29 -31 c-67 -70 -62 -118 18
-182 12 -10 9 -17 -17 -48 -118 -134 -209 -346 -215 -502 -1 -46 -5 -53 -63
-109 -192 -186 -279 -264 -460 -410 -144 -116 -329 -253 -464 -344 l-64 -44
-31 18 c-38 22 -164 106 -197 131 -13 11 -69 64 -124 119 -191 191 -326 438
-381 700 -3 11 -9 43 -15 70 -17 80 -20 339 -4 436 50 327 181 586 410 814
225 226 485 358 805 410 72 11 342 13 405 2z m1981 -214 c-16 -174 -74 -355
-159 -498 -17 -28 -99 -148 -112 -162 -5 -6 -169 -171 -364 -367 l-354 -355
-225 225 -225 225 74 75 c211 214 628 626 659 651 177 148 428 247 689 271 24
2 24 1 17 -65z m-1349 -390 l174 -47 -133 -133 -133 -133 -112 112 -113 113
67 67 c37 38 69 68 72 68 2 0 82 -21 178 -47z m904 -911 l47 -167 -69 -70 -69
-70 -112 113 -113 112 130 130 c71 71 131 127 135 124 3 -3 26 -81 51 -172z
m-878 28 l109 -110 -23 -20 c-102 -88 -221 -144 -354 -169 l-47 -9 6 37 c11
69 16 86 38 141 37 92 130 240 152 240 5 0 58 -49 119 -110z m267 -265 c25
-26 42 -35 67 -35 24 0 44 10 72 35 21 19 41 35 43 35 6 0 57 -49 75 -71 10
-13 7 -32 -17 -104 -124 -366 -401 -675 -752 -839 -96 -45 -262 -100 -335
-111 -21 -3 -50 -8 -63 -11 -14 -3 -95 -7 -180 -9 -175 -3 -305 14 -447 60
l-83 27 88 61 c267 185 557 425 808 669 l89 86 67 7 c152 14 341 92 454 185
33 27 64 49 70 49 5 1 25 -15 44 -34z m-2355 -685 c34 -41 75 -89 91 -105 57
-59 245 -215 259 -215 4 0 18 -9 31 -19 l24 -19 -123 -60 c-256 -126 -450
-167 -547 -117 -111 57 -84 276 72 593 l61 122 35 -52 c19 -29 63 -87 97 -128z"/>
<path d="M4177 3576 c-127 -46 -194 -196 -140 -317 71 -157 268 -194 388 -74
94 93 93 247 -2 337 -64 61 -164 83 -246 54z m118 -152 c22 -9 45 -57 40 -85
-7 -38 -49 -68 -87 -64 -41 5 -68 37 -68 80 0 54 60 90 115 69z"/>
<path d="M323 3427 c-166 -64 -215 -271 -92 -395 97 -98 250 -94 342 8 51 57
72 119 64 188 -10 80 -59 150 -133 188 -39 21 -141 27 -181 11z m110 -156 c29
-11 52 -61 43 -96 -9 -35 -64 -61 -102 -48 -56 19 -68 99 -21 135 25 20 45 22
80 9z"/>
<path d="M4506 1295 c-30 -32 -32 -54 -11 -95 37 -72 145 -36 145 48 0 32 -32
62 -72 69 -31 5 -40 1 -62 -22z"/>
<path d="M3066 375 c-46 -43 -27 -117 34 -130 42 -9 68 2 86 36 43 84 -51 158
-120 94z"/>
</g>
</svg>
